<mxfile host="app.diagrams.net" modified="2023-12-03T12:51:05.863Z" agent="Mozilla/5.0 (Macintosh; Intel Mac OS X 10_15_7) AppleWebKit/537.36 (KHTML, like Gecko) Chrome/119.0.0.0 Safari/537.36" version="22.1.5" etag="2fg0hwFHmlE2zfVdh0MH" type="github">
  <diagram name="第 1 页" id="NraEcWmfw-qaGPGi_mHX">
    <mxGraphModel>
      <root>
        <mxCell id="0" />
        <mxCell id="1" parent="0" />
      </root>
    </mxGraphModel>
  </diagram>
</mxfile>
